<?xml version="1.0" standalone="no"?><!DOCTYPE svg PUBLIC "-//W3C//DTD SVG 1.1//EN" "http://www.w3.org/Graphics/SVG/1.1/DTD/svg11.dtd"><svg t="1554822726187" class="icon" style="" viewBox="0 0 1024 1024" version="1.1" xmlns="http://www.w3.org/2000/svg" p-id="9973" xmlns:xlink="http://www.w3.org/1999/xlink" width="1200" height="1200"><defs><style type="text/css"></style></defs><path d="M576.094791 804.257267l5.00622 4.968294a21.276437 21.276437 0 0 0 30.113174 0l350.928463-350.928463a92.349595 92.349595 0 0 0 0-130.351359L661.352241 27.003629A91.515225 91.515225 0 0 0 596.081747 0.000379c-24.651843 0-47.748723 9.595256-65.156717 27.00325L180.034493 378.121721a21.162659 21.162659 0 0 0 0 30.075248l4.968295 5.00622-115.294772 115.294772a91.515225 91.515225 0 0 0-27.041176 65.232569c0 24.651843 9.595256 47.748723 27.00325 65.156716l260.740644 260.740645c12.591403 12.553477 28.103101 20.973029 44.942205 24.651842H59.126686c-11.719107 0-26.699842 14.525624-26.699842 32.237025 0 17.787253 14.980735 32.350803 26.699842 32.350803h865.09005c11.757033 0 25.220731-14.56355 25.220732-32.312877 0-17.749327-13.501625-32.274951-25.220732-32.274951H415.744036c16.839105-3.792591 32.388729-12.212144 44.942205-24.651842l115.446476-115.294773z m-12.781032-715.813661a45.207687 45.207687 0 0 1 63.829309 0l273.597529 273.597528a44.866354 44.866354 0 0 1 0 63.82931l-305.531146 305.606998-4.55111-4.55111-328.324619-328.362545-4.551109-4.513183 305.531146-305.606998zM359.955019 859.629098l-229.413841-229.413841a43.387243 43.387243 0 0 1-12.818958-30.871692c0-11.681181 4.551109-22.603843 12.818958-30.833767l101.451815-101.48974 291.157225 291.157226-101.48974 101.451814c-8.229923 8.343701-19.152585 12.818958-30.833766 12.818958-11.681181 0-22.641769-4.551109-30.871693-12.818958z" p-id="9974"></path></svg>