<?xml version="1.0" standalone="no"?><!DOCTYPE svg PUBLIC "-//W3C//DTD SVG 1.1//EN" "http://www.w3.org/Graphics/SVG/1.1/DTD/svg11.dtd"><svg t="1554822790470" class="icon" style="" viewBox="0 0 1024 1024" version="1.1" xmlns="http://www.w3.org/2000/svg" p-id="11432" xmlns:xlink="http://www.w3.org/1999/xlink" width="1200" height="1200"><defs><style type="text/css"></style></defs><path d="M422.35206 709.25077h471.191011c23.595839 0 42.47757 17.383604 42.47757 39.330836v156.147483c0 21.790096-18.883063 39.332168-42.47757 39.332168h-252.590928c-23.595839 0-42.634707 17.540741-42.634706 39.329505 0 21.712859 19.116105 39.330836 42.634706 39.330836h252.507033c70.796837 0 127.75231-52.783354 127.75231-117.992509V748.581606c0-65.446192-57.111278-117.993841-127.829547-117.993841h-468.987099l107.376446-99.114773a36.656846 36.656846 0 0 0-0.629879-55.061839c-16.95747-15.137079-42.514856-15.340824-59.7067-0.474074L293.814066 639.866833a43.653433 43.653433 0 0 0-9.518768 9.838369c-11.048856 15.428714-8.526675 36.740741 5.82605 49.162547a34.048107 34.048107 0 0 0 4.166792 3.379775l177.226467 163.618144c17.0933 15.251602 42.976945 15.011902 59.783936-0.545984a37.206825 37.206825 0 0 0 0.472743-55.067166l-109.343321-101.00308h-0.075905zM938.066084 118.097711c-0.316937-22.498543-21.63429-40.43479-49.323679-39.332168H136.963462c-29.894632-1.102622-51.133417 16.677819-51.133416 39.332168v786.630046c0.316937 20.4531 22.814149 39.332168 51.133416 39.332168h244.642198c23.595839 0 42.634707 17.540741 42.634706 39.329505 0 21.63429-19.117437 39.2536-42.634706 39.2536H136.963462C63.571203 1022.64303 1.664586 970.88506 0.639201 905.201831V118.174948C0.639201 49.896296 63.175697-2.647357 138.7732 0.182439h748.080899c73.315023-2.829796 135.538577 49.479484 136.40283 117.60233v312.922181c0 21.706201-19.116105 39.330836-42.634707 39.330836-23.522597 0-42.556138-17.624636-42.556138-39.330836V118.097711z m0 0" p-id="11433"></path></svg>